# xmcd
#
# Track frame offsets:
#	150
#	12505
#	23781
#	38331
#	50220
#	63860
#	82912
#	98430
#	115597
#	131404
#	140984
#	153123
#	168600
#	185128
#	205471
#	223184
#
# Disc length: 3273 seconds
#
# Revision: 1
# Processed by: cddbd v1.5.1PL2 Copyright (c) Steve Scherf et al.
# Submitted via: audiograbber 1.83.01
#
DISCID=dc0cc710
DTITLE=Peter Pan - A Tribute To Best Of Cliff Richard
DYEAR=1900
DGENRE=Pop
TTITLE0=Livin' Doll
TTITLE1=When The Girl In Your Arms
TTITLE2=The Young Ones
TTITLE3=Congratulations
TTITLE4=Power To All Our Friends
TTITLE5=We Don't Talk Anymore
TTITLE6=Devil Woman
TTITLE7=Miss Your Nights
TTITLE8=Carrie
TTITLE9=Batchelor Boy
TTITLE10=Goodbye Sam, Hello Samantha
TTITLE11=Dreaming
TTITLE12=Wired For Sound
TTITLE13=Mistletoe and Wine
TTITLE14=I Still Believe In You
TTITLE15=Millennium Prayer
EXTD=
EXTT0=
EXTT1=
EXTT2=
EXTT3=
EXTT4=
EXTT5=
EXTT6=
EXTT7=
EXTT8=
EXTT9=
EXTT10=
EXTT11=
EXTT12=
EXTT13=
EXTT14=
EXTT15=
PLAYORDER=
